<svg xmlns="http://www.w3.org/2000/svg" width="139" height="113" viewBox="0 0 139 113" fill="none">
<path fill-rule="evenodd" clip-rule="evenodd" d="M92.8342 24.9438C96.0947 18.2358 99.3503 12.9579 102.03 9.57692C103.343 7.92117 104.432 6.82955 105.236 6.23339C105.401 6.69646 105.574 7.29109 105.749 8.01337C106.219 9.95218 106.631 12.488 106.971 15.1123C107.654 20.3872 108 25.6387 108 26.4787C108 27.6558 108.163 29.6684 108.759 31.6505C109.326 33.5314 110.471 36.0092 112.882 37.2147C113.121 37.3341 113.381 37.4612 113.659 37.5975L113.66 37.5977C116.394 38.9348 120.938 41.1568 125.029 45.6346C129.472 50.4969 133.5 58.178 133.5 70.6277C133.5 83.9899 127.799 92.8357 121.513 98.4466C118.349 101.271 115.028 103.28 112.2 104.608C109.423 105.912 107.274 106.489 106.311 106.607C105.949 106.606 105.708 106.602 105.508 106.581C105.487 106.452 105.467 106.258 105.467 105.982V85.9921C105.468 85.9815 105.47 85.9642 105.474 85.9387L105.484 85.8628C105.487 85.8336 105.492 85.7973 105.497 85.7587C105.506 85.6821 105.518 85.58 105.526 85.465C105.599 84.4213 105.275 83.3124 104.654 82.4336C103.993 81.4975 102.83 80.6211 101.229 80.6211H101.219H101.209H101.2H101.19H101.18H101.17H101.16H101.151H101.141H101.131H101.121H101.112H101.102H101.092H101.082H101.072H101.062H101.053H101.043H101.033H101.023H101.013H101.003H100.994H100.984H100.974H100.964H100.954H100.944H100.934H100.924H100.914H100.905H100.895H100.885H100.875H100.865H100.855H100.845H100.835H100.825H100.815H100.805H100.795H100.785H100.775H100.765H100.755H100.745H100.735H100.725H100.715H100.705H100.695H100.685H100.675H100.665H100.655H100.645H100.635H100.625H100.615H100.605H100.595H100.585H100.575H100.565H100.555H100.545H100.535H100.525H100.515H100.505H100.494H100.484H100.474H100.464H100.454H100.444H100.434H100.424H100.414H100.403H100.393H100.383H100.373H100.363H100.353H100.343H100.332H100.322H100.312H100.302H100.292H100.282H100.272H100.261H100.251H100.241H100.231H100.221H100.21H100.2H100.19H100.18H100.17H100.159H100.149H100.139H100.129H100.119H100.108H100.098H100.088H100.078H100.068H100.057H100.047H100.037H100.027H100.016H100.006H99.9958H99.9856H99.9753H99.9651H99.9548H99.9445H99.9343H99.924H99.9137H99.9035H99.8932H99.8829H99.8726H99.8624H99.8521H99.8418H99.8315H99.8212H99.8109H99.8006H99.7903H99.78H99.7697H99.7594H99.7491H99.7388H99.7285H99.7182H99.7079H99.6976H99.6873H99.6769H99.6666H99.6563H99.646H99.6357H99.6253H99.615H99.6047H99.5943H99.584H99.5737H99.5633H99.553H99.5427H99.5323H99.522H99.5116H99.5013H99.4909H99.4806H99.4703H99.4599H99.4495H99.4392H99.4288H99.4185H99.4081H99.3978H99.3874H99.3771H99.3667H99.3563H99.346H99.3356H99.3252H99.3149H99.3045H99.2941H99.2838H99.2734H99.263H99.2527H99.2423H99.2319H99.2216H99.2112H99.2008H99.1904H99.1801H99.1697H99.1593H99.1489H99.1386H99.1282H99.1178H99.1074H99.097H99.0867H99.0763H99.0659H99.0555H99.0452H99.0348H99.0244H99.014H99.0036H98.9932H98.9829H98.9725H98.9621H98.9517H98.9413H98.931H98.9206H98.9102H98.8998H98.8894H98.8791H98.8687H98.8583H98.8479H98.8375H98.8272H98.8168H98.8064H98.796H98.7856H98.7753H98.7649H98.7545H98.7441H98.7338H98.7234H98.713H98.7026H98.6923H98.6819H98.6715H98.6612H98.6508H98.6404H98.6301H98.6197H98.6093H98.599H98.5886H98.5782H98.5679H98.5575H98.5471H98.5368H98.5264H98.5161H98.5057H98.4953H98.485H98.4746H98.4643H98.4539H98.4436H98.4332H98.4229H98.4125H98.4022H98.3919H98.3815H98.3712H98.3608H98.3505H98.3402H98.3298H98.3195H98.3092H98.2988H98.2885H98.2782H98.2679H98.2575H98.2472H98.2369H98.2266H98.2163H98.206H98.1956H98.1853H98.175H98.1647H98.1544H98.1441H98.1338H98.1235H98.1132H98.1029H98.0926H98.0824H98.0721H98.0618H98.0515H98.0412H98.0309H98.0207H98.0104H98.0001H97.9899H97.9796H97.9693H97.9591H97.9488H97.9386H97.9283H97.9181H97.9078H97.8976H97.8873H97.8771H97.8668H97.8566H97.8464H97.8362H97.8259H97.8157H97.8055H97.7953H97.785H97.7748H97.7646H97.7544H97.7442H97.734H97.7238H97.7136H97.7034H97.6933H97.6831H97.6729H97.6627H97.6525H97.6424H97.6322H97.622H97.6119H97.6017H97.5916H97.5814H97.5713H97.5611H97.551H97.5409H97.5307H97.5206H97.5105H97.5004H97.4902H97.4801H97.47H97.4599H97.4498H97.4397H97.4296H97.4195H97.4094H97.3993H97.3893H97.3792H97.3691H97.359H97.349H97.3389H97.3289H97.3188H97.3088H97.2987H97.2887H97.2787H97.2686H97.2586H97.2486H97.2386H97.2285H97.2185H97.2085H97.1985H97.1885H97.1786H97.1686H97.1586H97.1486H97.1386H97.1287H97.1187H97.1087H97.0988H97.0888H97.0789H97.069H97.059H97.0491H97.0392H97.0292H97.0193H97.0094H96.9995H96.9896H96.9797H96.9698H96.9599H96.9501H96.9402H96.9303H96.9205H96.9106H96.9007H96.8909H96.8811H96.8712H96.8614H96.8515H96.8417H96.8319H96.8221H96.8123H96.8025H96.7927H96.7829H96.7731H96.7633H96.7536H96.7438H96.734H96.7243H96.7145H96.7048H96.6951H96.6853H96.6756H96.6659H96.6562H96.6465H96.6367H96.6271H96.6174H96.6077H96.598H96.5883H96.5787H96.569H96.5593H96.5497H96.54H96.5304H96.5208H96.5112H96.5015H96.4919H96.4823H96.4727H96.4631H96.4535H96.444H96.4344H96.4248H96.4153H96.4057H96.3962H96.3866H96.3771H96.3676H96.358H96.3485H96.339H96.3295H96.32H96.3105H96.3011H96.2916H96.2821H96.2727H96.2632H96.2538H96.2443H96.2349H96.2255H96.2161H96.2066H96.1973H96.1879H96.1785H96.1691H96.1597H96.1503H96.141H96.1316H96.1223H96.1129H96.1036H96.0943H96.085H96.0757H96.0664C94.2217 80.6211 92.565 81.7467 91.8846 83.46L83.7977 103.821L75.3639 83.4031C74.6684 81.7194 73.0264 80.6211 71.2047 80.6211H61.6765C60.8366 80.6211 59.6994 80.8876 58.724 81.6951C57.6477 82.5861 57.0033 83.9427 57.0033 85.6198V85.6286V85.6377V85.647V85.6565V85.6661V85.676V85.6861V85.6965V85.707V85.7177V85.7286V85.7398V85.7511V85.7626V85.7744V85.7863V85.7984V85.8108V85.8233V85.836V85.849V85.8621V85.8755V85.889V85.9027V85.9166V85.9307V85.9451V85.9596V85.9743V85.9892V86.0043V86.0195V86.035V86.0507V86.0665V86.0826V86.0988V86.1152V86.1319V86.1487V86.1656V86.1828V86.2002V86.2177V86.2355V86.2534V86.2715V86.2898V86.3083V86.3269V86.3457V86.3648V86.384V86.4034V86.4229V86.4426V86.4626V86.4827V86.503V86.5234V86.544V86.5648V86.5858V86.607V86.6283V86.6498V86.6715V86.6934V86.7154V86.7376V86.76V86.7825V86.8053V86.8282V86.8512V86.8744V86.8978V86.9214V86.9451V86.969V86.9931V87.0173V87.0417V87.0663V87.091V87.1159V87.141V87.1662V87.1916V87.2171V87.2428V87.2687V87.2947V87.3209V87.3472V87.3737V87.4004V87.4272V87.4542V87.4813V87.5086V87.536V87.5636V87.5914V87.6193V87.6474V87.6756V87.7039V87.7324V87.7611V87.7899V87.8189V87.848V87.8773V87.9067V87.9363V87.966V87.9958V88.0259V88.056V88.0863V88.1167V88.1473V88.1781V88.2089V88.24V88.2711V88.3024V88.3339V88.3654V88.3972V88.429V88.461V88.4932V88.5255V88.5579V88.5904V88.6231V88.656V88.6889V88.722V88.7553V88.7886V88.8221V88.8558V88.8895V88.9234V88.9574V88.9916V89.0259V89.0603V89.0949V89.1295V89.1643V89.1993V89.2343V89.2695V89.3048V89.3403V89.3758V89.4115V89.4473V89.4833V89.5193V89.5555V89.5918V89.6282V89.6648V89.7014V89.7382V89.7751V89.8121V89.8493V89.8865V89.9239V89.9614V89.999V90.0367V90.0746V90.1125V90.1506V90.1888V90.2271V90.2655V90.304V90.3426V90.3813V90.4202V90.4591V90.4982V90.5374V90.5767V90.6161V90.6556V90.6952V90.7349V90.7747V90.8146V90.8546V90.8948V90.935V90.9753V91.0158V91.0563V91.0969V91.1377V91.1785V91.2195V91.2605V91.3016V91.3429V91.3842V91.4257V91.4672V91.5088V91.5505V91.5923V91.6342V91.6762V91.7183V91.7605V91.8028V91.8452V91.8876V91.9302V91.9728V92.0156V92.0584V92.1013V92.1443V92.1874V92.2306V92.2738V92.3172V92.3606V92.4041V92.4477V92.4914V92.5352V92.579V92.623V92.667V92.7111V92.7553V92.7995V92.8439V92.8883V92.9328V92.9773V93.022V93.0667V93.1115V93.1564V93.2014V93.2464V93.2915V93.3367V93.3819V93.4272V93.4726V93.5181V93.5637V93.6093V93.6549V93.7007V93.7465V93.7924V93.8383V93.8844V93.9305V93.9766V94.0228V94.0691V94.1155V94.1619V94.2084V94.2549V94.3015V94.3482V94.3949V94.4417V94.4886V94.5355V94.5825V94.6295V94.6766V94.7237V94.7709V94.8182V94.8655V94.9129V94.9603V95.0078V95.0553V95.1029V95.1506V95.1983V95.246V95.2938V95.3417V95.3896V95.4375V95.4855V95.5336V95.5817V95.6298V95.678V95.7263V95.7746V95.8229V95.8713V95.9197V95.9682V96.0167V96.0653V96.1139V96.1625V96.2112V96.2599V96.3087V96.3575V96.4063V96.4552V96.5041V96.5531V96.6021V96.6511V96.7002V96.7493V96.7984V96.8476V96.8968V96.9461V96.9954V97.0447V97.094V97.1434V97.1928V97.2422V97.2917V97.3412V97.3907V97.4403V97.4898V97.5395V97.5891V97.6388V97.6884V97.7382V97.7879V97.8377V97.8874V97.9373V97.9871V98.0369V98.0868V98.1367V98.1866V98.2366V98.2865V98.3365V98.3865V98.4365V98.4865V98.5366V98.5866V98.6367V98.6868V98.7369V98.787V98.8372V98.8873V98.9375V98.9877V99.0379V99.0881V99.1383V99.1885V99.2387V99.2889V99.3392V99.3894V99.4397V99.49V99.5402V99.5905V99.6408V99.6911V99.7414V99.7917V99.842V99.8923V99.9426V99.9929V100.043V100.094V100.144V100.194V100.244V100.295V100.345V100.395V100.446V100.496V100.546V100.597V100.647V100.697V100.747V100.798V100.848V100.898V100.948V100.999V101.049V101.099V101.149V101.199V101.25V101.3V101.35V101.4V101.45V101.5V101.55V101.6V101.65V101.7V101.751V101.801V101.851V101.9V101.95V102V102.05V102.1V102.15V102.2V102.25V102.3V102.349V102.399V102.449V102.499V102.548V102.598V102.648V102.697V102.747V102.796V102.846V102.895V102.945V102.994V103.044V103.093V103.142V103.192V103.241V103.29V103.339V103.389V103.438V103.487V103.536V103.585V103.634V103.683V103.732V103.781V103.83V103.878V103.927V103.976V104.024V104.061L43.0656 82.6649C42.3731 81.6019 40.6266 80.1484 38.4281 80.9879C37.7288 81.255 36.924 81.7286 36.2883 82.5391C35.6281 83.3808 35.2712 84.434 35.2712 85.6198V85.6305V85.6414V85.6525V85.6639V85.6755V85.6872V85.6992V85.7114V85.7238V85.7364V85.7493V85.7623V85.7755V85.789V85.8026V85.8165V85.8305V85.8448V85.8592V85.8739V85.8887V85.9038V85.9191V85.9345V85.9502V85.966V85.9821V85.9984V86.0148V86.0315V86.0483V86.0653V86.0826V86.1V86.1176V86.1354V86.1534V86.1716V86.19V86.2086V86.2273V86.2463V86.2654V86.2848V86.3043V86.324V86.3438V86.3639V86.3842V86.4046V86.4252V86.446V86.467V86.4882V86.5095V86.5311V86.5528V86.5747V86.5967V86.619V86.6414V86.664V86.6868V86.7097V86.7328V86.7561V86.7796V86.8033V86.8271V86.8511V86.8752V86.8995V86.924V86.9487V86.9735V86.9986V87.0237V87.0491V87.0746V87.1003V87.1261V87.1521V87.1783V87.2046V87.2311V87.2577V87.2845V87.3115V87.3387V87.3659V87.3934V87.421V87.4488V87.4767V87.5048V87.533V87.5614V87.59V87.6187V87.6475V87.6766V87.7057V87.735V87.7645V87.7941V87.8239V87.8538V87.8839V87.9141V87.9444V87.9749V88.0056V88.0364V88.0673V88.0984V88.1296V88.161V88.1925V88.2242V88.256V88.2879V88.32V88.3522V88.3846V88.4171V88.4497V88.4825V88.5154V88.5485V88.5817V88.615V88.6484V88.682V88.7157V88.7496V88.7836V88.8177V88.8519V88.8863V88.9208V88.9554V88.9902V89.0251V89.0601V89.0952V89.1305V89.1659V89.2014V89.237V89.2728V89.3087V89.3447V89.3808V89.417V89.4534V89.4899V89.5265V89.5632V89.6001V89.637V89.6741V89.7113V89.7486V89.786V89.8236V89.8612V89.899V89.9369V89.9748V90.0129V90.0511V90.0895V90.1279V90.1664V90.2051V90.2438V90.2827V90.3217V90.3607V90.3999V90.4392V90.4786V90.5181V90.5576V90.5973V90.6371V90.677V90.717V90.7571V90.7973V90.8376V90.878V90.9185V90.959V90.9997V91.0405V91.0814V91.1223V91.1634V91.2045V91.2458V91.2871V91.3285V91.37V91.4117V91.4533V91.4951V91.537V91.579V91.621V91.6631V91.7054V91.7477V91.79V91.8325V91.8751V91.9177V91.9604V92.0032V92.0461V92.0891V92.1321V92.1752V92.2184V92.2617V92.305V92.3485V92.392V92.4356V92.4792V92.5229V92.5667V92.6106V92.6546V92.6986V92.7427V92.7868V92.8311V92.8754V92.9197V92.9642V93.0087V93.0532V93.0979V93.1426V93.1873V93.2322V93.2771V93.322V93.3671V93.4121V93.4573V93.5025V93.5478V93.5931V93.6385V93.6839V93.7294V93.775V93.8206V93.8662V93.912V93.9578V94.0036V94.0495V94.0954V94.1414V94.1875V94.2336V94.2797V94.3259V94.3721V94.4184V94.4648V94.5112V94.5576V94.6041V94.6506V94.6972V94.7438V94.7905V94.8372V94.8839V94.9307V94.9775V95.0244V95.0713V95.1183V95.1653V95.2123V95.2594V95.3065V95.3536V95.4008V95.448V95.4952V95.5425V95.5898V95.6372V95.6845V95.732V95.7794V95.8269V95.8744V95.9219V95.9695V96.0171V96.0647V96.1123V96.16V96.2077V96.2554V96.3031V96.3509V96.3987V96.4465V96.4943V96.5422V96.5901V96.638V96.6859V96.7338V96.7818V96.8297V96.8777V96.9257V96.9738V97.0218V97.0698V97.1179V97.166V97.2141V97.2622V97.3103V97.3584V97.4066V97.4547V97.5029V97.551V97.5992V97.6474V97.6956V97.7438V97.792V97.8402V97.8884V97.9366V97.9848V98.033V98.0812V98.1295V98.1777V98.2259V98.2741V98.3223V98.3706V98.4188V98.467V98.5152V98.5634V98.6116V98.6598V98.708V98.7562V98.8044V98.8525V98.9007V98.9489V98.997V99.0451V99.0932V99.1414V99.1895V99.2375V99.2856V99.3337V99.3817V99.4297V99.4778V99.5258V99.5737V99.6217V99.6696V99.7176V99.7655V99.8134V99.8612V99.9091V99.9569V100.005V100.052V100.1V100.148V100.196V100.243V100.291V100.339V100.386V100.434V100.481V100.529V100.576V100.624V100.671V100.719V100.766V100.813V100.861V100.908V100.955V101.002V101.049V101.097V101.144V101.191V101.238V101.285V101.332V101.379V101.425V101.472V101.519V101.566V101.612V101.659V101.706V101.752V101.799V101.845V101.892V101.938V101.984V102.031V102.077V102.123V102.169V102.215V102.261V102.307V102.353V102.399V102.445V102.49V102.536V102.582V102.627V102.673V102.718V102.764V102.809V102.854V102.9V102.945V102.99V103.035V103.08V103.125V103.17V103.215V103.259V103.304V103.349V103.393V103.438V103.482V103.526V103.571V103.615V103.659V103.703V103.747V103.791V103.835V103.879V103.922V103.966V104.009V104.053V104.096V104.14V104.183V104.226V104.269V104.312V104.355V104.398V104.441V104.483V104.526V104.568V104.611V104.653V104.695V104.738V104.78V104.822V104.864V104.905V104.947V104.989V105.03V105.072V105.113V105.155V105.196V105.237V105.278V105.319V105.36V105.4V105.441V105.481C35.2712 105.701 35.2632 105.951 35.2403 106.201C35.2327 106.284 35.2237 106.364 35.2137 106.438L35.1558 106.43C34.8569 106.388 34.457 106.318 33.9683 106.214C32.9917 106.007 31.6987 105.671 30.2008 105.168C27.1997 104.159 23.4375 102.497 19.7666 99.896C12.9642 95.0753 6.38849 86.9861 5.58262 73.4498C5.71902 73.4688 5.85837 73.4786 6 73.4786H31C32.6569 73.4786 34 72.1355 34 70.4786C34 68.8218 32.6569 67.4786 31 67.4786H6C5.86358 67.4786 5.72928 67.4877 5.59768 67.5054C6.53797 52.7313 14.1756 43.0846 24.5564 38.2445C27.8485 36.7095 29.4786 34.0611 30.2554 31.6411C31.0005 29.3195 31.0002 27.0936 31 26.0692L31 26.0246C31 25.2416 31.4598 20.2105 32.3244 15.0728C32.7526 12.5285 33.2623 10.0697 33.8299 8.17611C34.0035 7.59694 34.1741 7.09951 34.338 6.68575C34.3646 6.71138 34.3916 6.73766 34.4192 6.76459C35.4876 7.81035 36.8549 9.45866 38.308 11.4742C41.2232 15.5179 44.1972 20.6385 45.5916 24.5215C46.459 26.9371 49.2194 28.4162 51.8042 27.4196C65.7318 22.0496 80.0008 23.8865 86.2152 27.0372C88.3937 28.1417 91.5532 27.5793 92.8342 24.9438ZM104.843 5.35553C104.843 5.35527 104.846 5.35919 104.853 5.36802C104.846 5.36019 104.843 5.35579 104.843 5.35553ZM33.2717 5.81905C33.2716 5.81893 33.2745 5.82018 33.2803 5.82313C33.2746 5.82064 33.2717 5.81916 33.2717 5.81905ZM107.69 1.31126C106.657 0.717033 105.563 0.740103 104.69 0.969317C103.849 1.19015 103.074 1.63016 102.397 2.11598C101.038 3.09165 99.5856 4.61167 98.1118 6.47108C95.1642 10.1897 91.7642 15.7359 88.4353 22.5569C80.849 18.7327 65.2431 16.9595 50.2372 22.6656C48.6053 18.2066 45.3876 12.7443 42.3639 8.55013C40.8286 6.42061 39.2721 4.51815 37.9166 3.1914C37.2532 2.54205 36.5354 1.92814 35.8151 1.51211C35.4559 1.30463 34.9816 1.07863 34.43 0.97185C33.8613 0.86175 33.0507 0.85326 32.254 1.31128C31.2016 1.91627 30.5639 2.97752 30.1782 3.74425C29.7412 4.61306 29.3664 5.65304 29.0405 6.74042C28.3854 8.92583 27.8352 11.6195 27.3937 14.2431C26.5189 19.4414 26 24.8087 26 26.0246C26 27.0203 25.9885 28.5744 25.4946 30.113C25.0214 31.5874 24.1515 32.9165 22.4436 33.7128C9.53861 39.7298 0.5 52.1926 0.5 70.6277C0.5 87.7295 8.49097 98.0335 16.8756 103.975C21.0282 106.918 25.2525 108.779 28.608 109.907C30.2884 110.472 31.7663 110.858 32.9289 111.105C34.0257 111.338 34.9947 111.481 35.598 111.481C36.1913 111.481 36.7543 111.403 37.2797 111.244C39.1824 110.668 39.7833 108.847 39.98 108.087C40.2303 107.119 40.2712 106.111 40.2712 105.481V105.441V105.4V105.36V105.319V105.278V105.237V105.196V105.155V105.113V105.072V105.03V104.989V104.947V104.905V104.864V104.822V104.78V104.738V104.695V104.653V104.611V104.568V104.526V104.483V104.441V104.398V104.355V104.312V104.269V104.226V104.183V104.14V104.096V104.053V104.009V103.966V103.922V103.879V103.835V103.791V103.747V103.703V103.659V103.615V103.571V103.526V103.482V103.438V103.393V103.349V103.304V103.259V103.215V103.17V103.125V103.08V103.035V102.99V102.945V102.9V102.854V102.809V102.764V102.718V102.673V102.627V102.582V102.536V102.49V102.445V102.399V102.353V102.307V102.261V102.215V102.169V102.123V102.077V102.031V101.984V101.938V101.892V101.845V101.799V101.752V101.706V101.659V101.612V101.566V101.519V101.472V101.425V101.379V101.332V101.285V101.238V101.191V101.144V101.097V101.049V101.002V100.955V100.908V100.861V100.813V100.766V100.719V100.671V100.624V100.576V100.529V100.481V100.434V100.386V100.339V100.291V100.243V100.196V100.148V100.1V100.052V100.005V99.9569V99.9091V99.8612V99.8134V99.7655V99.7176V99.6696V99.6217V99.5737V99.5258V99.4778V99.4297V99.3817V99.3337V99.2856V99.2375V99.1895V99.1414V99.0932V99.0451V98.997V98.9489V98.9007V98.8525V98.8044V98.7562V98.708V98.6598V98.6116V98.5634V98.5152V98.467V98.4188V98.3706V98.3223V98.2741V98.2259V98.1777V98.1295V98.0812V98.033V97.9848V97.9366V97.8884V97.8402V97.792V97.7438V97.6956V97.6474V97.5992V97.551V97.5029V97.4547V97.4066V97.3584V97.3103V97.2622V97.2141V97.166V97.1179V97.0698V97.0218V96.9738V96.9257V96.8777V96.8297V96.7818V96.7338V96.6859V96.638V96.5901V96.5422V96.4943V96.4465V96.3987V96.3509V96.3031V96.2554V96.2077V96.16V96.1123V96.0647V96.0171V95.9695V95.9219V95.8744V95.8269V95.7794V95.732V95.6845V95.6372V95.5898V95.5425V95.4952V95.448V95.4008V95.3536V95.3065V95.2594V95.2123V95.1653V95.1183V95.0713V95.0244V94.9775V94.9307V94.8839V94.8372V94.7905V94.7438V94.6972V94.6506V94.6041V94.5576V94.5112V94.4648V94.4184V94.3721V94.3259V94.2797V94.2336V94.1875V94.1414V94.0954V94.0495V94.0036V93.9578V93.912V93.8662V93.8206V93.775V93.7294V93.6839V93.6385V93.5931V93.5478V93.5025V93.4573V93.4121V93.3671V93.322V93.2771V93.2322V93.1873V93.1426V93.0979V93.0532V93.0087V92.9642V92.9197V92.8754V92.8311V92.7868V92.7427V92.6986V92.6546V92.6106V92.5667V92.5229V92.4792V92.4356V92.392V92.3485V92.305V92.2617V92.2184V92.1752V92.1321V92.0891V92.0461V92.0032V91.9604V91.9177V91.8751V91.8325V91.79V91.7477V91.7054V91.6631V91.621V91.579V91.537V91.4951V91.4533V91.4117V91.37V91.3285V91.2871V91.2458V91.2045V91.1634V91.1223V91.0814V91.0405V90.9997V90.959V90.9185V90.878V90.8376V90.7973V90.7571V90.717V90.677V90.6371V90.5973V90.5576V90.5181V90.4786V90.4392V90.3999V90.3607V90.3217V90.2827V90.2438V90.2051V90.1664V90.1279V90.0895V90.0511V90.0129V89.9748V89.9369V89.899V89.8612V89.8236V89.786V89.7486V89.7113V89.6741V89.637V89.6001V89.5632V89.5265V89.4899V89.4534V89.417V89.3808V89.3447V89.3087V89.2728V89.237V89.2014V89.1659V89.1305V89.0952V89.0601V89.0251V88.9902V88.9554V88.9208V88.8863V88.8519V88.8177V88.7836V88.7496V88.7157V88.682V88.6484V88.615V88.5817V88.5485V88.5154V88.4825V88.4497V88.4171V88.3846V88.3522V88.32V88.2879V88.256V88.2242V88.1925V88.161V88.1296V88.0984V88.0673V88.0364V88.0056V87.9749V87.9444V87.9141V87.8839V87.8538V87.8239V87.7941V87.7645V87.735V87.7057V87.6766V87.6475V87.6187V87.59V87.5614V87.5357L53.7327 108.2C56.1747 111.949 62.0033 110.226 62.0033 105.745V105.698V105.651V105.604V105.557V105.51V105.463V105.416V105.369V105.321V105.274V105.227V105.179V105.132V105.084V105.036V104.989V104.941V104.893V104.845V104.797V104.749V104.701V104.653V104.605V104.557V104.509V104.461V104.412V104.364V104.316V104.267V104.219V104.17V104.122V104.073V104.024V103.976V103.927V103.878V103.83V103.781V103.732V103.683V103.634V103.585V103.536V103.487V103.438V103.389V103.339V103.29V103.241V103.192V103.142V103.093V103.044V102.994V102.945V102.895V102.846V102.796V102.747V102.697V102.648V102.598V102.548V102.499V102.449V102.399V102.349V102.3V102.25V102.2V102.15V102.1V102.05V102V101.95V101.9V101.851V101.801V101.751V101.7V101.65V101.6V101.55V101.5V101.45V101.4V101.35V101.3V101.25V101.199V101.149V101.099V101.049V100.999V100.948V100.898V100.848V100.798V100.747V100.697V100.647V100.597V100.546V100.496V100.446V100.395V100.345V100.295V100.244V100.194V100.144V100.094V100.043V99.9929V99.9426V99.8923V99.842V99.7917V99.7414V99.6911V99.6408V99.5905V99.5402V99.49V99.4397V99.3894V99.3392V99.2889V99.2387V99.1885V99.1383V99.0881V99.0379V98.9877V98.9375V98.8873V98.8372V98.787V98.7369V98.6868V98.6367V98.5866V98.5366V98.4865V98.4365V98.3865V98.3365V98.2865V98.2366V98.1866V98.1367V98.0868V98.0369V97.9871V97.9373V97.8874V97.8377V97.7879V97.7382V97.6884V97.6388V97.5891V97.5395V97.4898V97.4403V97.3907V97.3412V97.2917V97.2422V97.1928V97.1434V97.094V97.0447V96.9954V96.9461V96.8968V96.8476V96.7984V96.7493V96.7002V96.6511V96.6021V96.5531V96.5041V96.4552V96.4063V96.3575V96.3087V96.2599V96.2112V96.1625V96.1139V96.0653V96.0167V95.9682V95.9197V95.8713V95.8229V95.7746V95.7263V95.678V95.6298V95.5817V95.5336V95.4855V95.4375V95.3896V95.3417V95.2938V95.246V95.1983V95.1506V95.1029V95.0553V95.0078V94.9603V94.9129V94.8655V94.8182V94.7709V94.7237V94.6766V94.6295V94.5825V94.5355V94.4886V94.4417V94.3949V94.3482V94.3015V94.2549V94.2084V94.1619V94.1155V94.0691V94.0228V93.9766V93.9305V93.8844V93.8383V93.7924V93.7465V93.7007V93.6549V93.6093V93.5637V93.5181V93.4726V93.4272V93.3819V93.3367V93.2915V93.2464V93.2014V93.1564V93.1115V93.0667V93.022V92.9773V92.9328V92.8883V92.8439V92.7995V92.7553V92.7111V92.667V92.623V92.579V92.5352V92.4914V92.4477V92.4041V92.3606V92.3172V92.2738V92.2306V92.1874V92.1443V92.1013V92.0584V92.0156V91.9728V91.9302V91.8876V91.8452V91.8028V91.7605V91.7183V91.6762V91.6342V91.5923V91.5505V91.5088V91.4672V91.4257V91.3842V91.3429V91.3016V91.2605V91.2195V91.1785V91.1377V91.0969V91.0563V91.0158V90.9753V90.935V90.8948V90.8546V90.8146V90.7747V90.7349V90.6952V90.6556V90.6161V90.5767V90.5374V90.4982V90.4591V90.4202V90.3813V90.3426V90.304V90.2655V90.2271V90.1888V90.1506V90.1125V90.0746V90.0367V89.999V89.9614V89.9239V89.8865V89.8493V89.8121V89.7751V89.7382V89.7014V89.6648V89.6282V89.5918V89.5555V89.5193V89.4833V89.4473V89.4115V89.3758V89.3403V89.3048V89.2695V89.2343V89.1993V89.1643V89.1295V89.0949V89.0603V89.0259V88.9916V88.9574V88.9234V88.8895V88.8558V88.8221V88.7886V88.7553V88.722V88.6889V88.656V88.6231V88.5904V88.5579V88.5255V88.4932V88.461V88.429V88.3972V88.3654V88.3339V88.3024V88.2711V88.24V88.2089V88.1781V88.1473V88.1167V88.0863V88.056V88.0259V87.9958V87.966V87.9363V87.9067V87.8773V87.848V87.8189V87.7899V87.7611V87.7324V87.7039V87.6756V87.6474V87.6193V87.5914V87.5636V87.536V87.5086V87.4813V87.4542V87.4272V87.4004V87.3737V87.3472V87.3209V87.2947V87.2687V87.2428V87.2171V87.1916V87.1662V87.141V87.1159V87.091V87.0663V87.0417V87.0173V86.9931V86.969V86.9451V86.9214V86.8978V86.8744V86.8512V86.8282V86.8053V86.7825V86.76V86.7376V86.7154V86.6934V86.6715V86.6498V86.6283V86.607V86.5858V86.5648V86.544V86.5234V86.503V86.4827V86.4626V86.4426V86.4229V86.4034V86.384V86.3648V86.3457V86.3269V86.3083V86.2898V86.2715V86.2534V86.2355V86.2177V86.2002V86.1828V86.1656V86.1487V86.1319V86.1152V86.0988V86.0826V86.0665V86.0507V86.035V86.0195V86.0043V85.9892V85.9743V85.9596V85.9451V85.9307V85.9166V85.9027V85.889V85.8755V85.8621V85.849V85.836V85.8233V85.8108V85.7984V85.7863V85.7744V85.7626V85.7511V85.7398V85.7286V85.7177V85.707V85.6965V85.6861V85.676V85.6661V85.6565V85.647V85.6377V85.6286V85.6211H70.8702L79.6476 106.871C81.1912 110.608 86.4966 110.572 87.989 106.814L96.4062 85.6211H96.4153H96.4248H96.4344H96.444H96.4535H96.4631H96.4727H96.4823H96.4919H96.5015H96.5112H96.5208H96.5304H96.54H96.5497H96.5593H96.569H96.5787H96.5883H96.598H96.6077H96.6174H96.6271H96.6367H96.6465H96.6562H96.6659H96.6756H96.6853H96.6951H96.7048H96.7145H96.7243H96.734H96.7438H96.7536H96.7633H96.7731H96.7829H96.7927H96.8025H96.8123H96.8221H96.8319H96.8417H96.8515H96.8614H96.8712H96.8811H96.8909H96.9007H96.9106H96.9205H96.9303H96.9402H96.9501H96.9599H96.9698H96.9797H96.9896H96.9995H97.0094H97.0193H97.0292H97.0392H97.0491H97.059H97.069H97.0789H97.0888H97.0988H97.1087H97.1187H97.1287H97.1386H97.1486H97.1586H97.1686H97.1786H97.1885H97.1985H97.2085H97.2185H97.2285H97.2386H97.2486H97.2586H97.2686H97.2787H97.2887H97.2987H97.3088H97.3188H97.3289H97.3389H97.349H97.359H97.3691H97.3792H97.3893H97.3993H97.4094H97.4195H97.4296H97.4397H97.4498H97.4599H97.47H97.4801H97.4902H97.5004H97.5105H97.5206H97.5307H97.5409H97.551H97.5611H97.5713H97.5814H97.5916H97.6017H97.6119H97.622H97.6322H97.6424H97.6525H97.6627H97.6729H97.6831H97.6933H97.7034H97.7136H97.7238H97.734H97.7442H97.7544H97.7646H97.7748H97.785H97.7953H97.8055H97.8157H97.8259H97.8362H97.8464H97.8566H97.8668H97.8771H97.8873H97.8976H97.9078H97.9181H97.9283H97.9386H97.9488H97.9591H97.9693H97.9796H97.9899H98.0001H98.0104H98.0207H98.0309H98.0412H98.0515H98.0618H98.0721H98.0824H98.0926H98.1029H98.1132H98.1235H98.1338H98.1441H98.1544H98.1647H98.175H98.1853H98.1956H98.206H98.2163H98.2266H98.2369H98.2472H98.2575H98.2679H98.2782H98.2885H98.2988H98.3092H98.3195H98.3298H98.3402H98.3505H98.3608H98.3712H98.3815H98.3919H98.4022H98.4125H98.4229H98.4332H98.4436H98.4539H98.4643H98.4746H98.485H98.4953H98.5057H98.5161H98.5264H98.5368H98.5471H98.5575H98.5679H98.5782H98.5886H98.599H98.6093H98.6197H98.6301H98.6404H98.6508H98.6612H98.6715H98.6819H98.6923H98.7026H98.713H98.7234H98.7338H98.7441H98.7545H98.7649H98.7753H98.7856H98.796H98.8064H98.8168H98.8272H98.8375H98.8479H98.8583H98.8687H98.8791H98.8894H98.8998H98.9102H98.9206H98.931H98.9413H98.9517H98.9621H98.9725H98.9829H98.9932H99.0036H99.014H99.0244H99.0348H99.0452H99.0555H99.0659H99.0763H99.0867H99.097H99.1074H99.1178H99.1282H99.1386H99.1489H99.1593H99.1697H99.1801H99.1904H99.2008H99.2112H99.2216H99.2319H99.2423H99.2527H99.263H99.2734H99.2838H99.2941H99.3045H99.3149H99.3252H99.3356H99.346H99.3563H99.3667H99.3771H99.3874H99.3978H99.4081H99.4185H99.4288H99.4392H99.4495H99.4599H99.4703H99.4806H99.4909H99.5013H99.5116H99.522H99.5323H99.5427H99.553H99.5633H99.5737H99.584H99.5943H99.6047H99.615H99.6253H99.6357H99.646H99.6563H99.6666H99.6769H99.6873H99.6976H99.7079H99.7182H99.7285H99.7388H99.7491H99.7594H99.7697H99.78H99.7903H99.8006H99.8109H99.8212H99.8315H99.8418H99.8521H99.8624H99.8726H99.8829H99.8932H99.9035H99.9137H99.924H99.9343H99.9445H99.9548H99.9651H99.9753H99.9856H99.9958H100.006H100.016H100.027H100.037H100.047H100.057H100.068H100.078H100.088H100.098H100.108H100.119H100.129H100.139H100.149H100.159H100.17H100.18H100.19H100.2H100.21H100.221H100.231H100.241H100.251H100.261H100.272H100.282H100.292H100.302H100.312H100.322H100.332H100.343H100.353H100.363H100.373H100.383H100.393H100.403H100.414H100.424H100.434H100.444H100.454H100.464H100.474H100.481C100.473 85.7221 100.467 85.8365 100.467 85.9577V105.982C100.467 107.975 101.045 109.828 102.769 110.861C103.511 111.306 104.276 111.469 104.87 111.541C105.429 111.608 105.993 111.607 106.393 111.607H106.394L106.444 111.607H106.564L106.683 111.596C108.385 111.433 111.178 110.612 114.326 109.134C117.529 107.63 121.27 105.366 124.843 102.177C132.031 95.7606 138.5 85.6165 138.5 70.6277C138.5 56.9645 134.028 48.0711 128.721 42.262C123.957 37.0479 118.614 34.4473 115.864 33.1085C115.588 32.9743 115.338 32.8528 115.118 32.7426C114.604 32.4858 114 31.7131 113.547 30.2093C113.125 28.8067 113 27.3004 113 26.4787C113 25.3197 112.622 19.8207 111.929 14.4702C111.581 11.7818 111.142 9.03608 110.608 6.83416C110.342 5.74067 110.034 4.69889 109.668 3.83782C109.485 3.40681 109.262 2.96005 108.985 2.55379C108.723 2.1696 108.31 1.66746 107.69 1.31126Z" fill="white" fill-opacity="0.87"/>
<rect x="53" y="43" width="14" height="26" rx="7" fill="white" fill-opacity="0.87">
    <animate attributeName="height" values="26;20;26;20;26;26;26;26;26;26;26" dur="2.5s" repeatCount="indefinite"/>
    <animate attributeName="y" values="43;50;43;50;43;43;43;43;43;43;43" dur="2.5s" repeatCount="indefinite"/>
    <animate attributeName="x" values="53;53;53;53;53;45;45;45;53;53;53" dur="2.5s" repeatCount="indefinite"/>
</rect>
<rect x="93" y="43" width="14" height="26" rx="7" fill="white" fill-opacity="0.87">
    <animate attributeName="height" values="26;20;26;20;26;26;26;26;26;26;26" dur="2.5s" repeatCount="indefinite"/>
    <animate attributeName="y" values="43;50;43;50;43;43;43;43;43;43;43" dur="2.5s" repeatCount="indefinite"/>
    <animate attributeName="x" values="93;93;93;93;93;85;85;85;93;93;93" dur="2.5s" repeatCount="indefinite"/>
</rect>
</svg>